<mxfile host="app.diagrams.net" modified="2024-04-01T05:14:45.588Z" agent="Mozilla/5.0 (Windows NT 10.0; Win64; x64) AppleWebKit/537.36 (KHTML, like Gecko) Chrome/123.0.0.0 Safari/537.36" etag="gTGF7kUufPu5hTFQlqrT" version="24.2.1" type="github">
  <diagram name="PÃ¡gina-1" id="s3YjYQ9PzFFQcDr-WQRy">
    <mxGraphModel dx="1050" dy="522" grid="1" gridSize="10" guides="1" tooltips="1" connect="1" arrows="1" fold="1" page="1" pageScale="1" pageWidth="827" pageHeight="1169" math="0" shadow="0">
      <root>
        <mxCell id="0" />
        <mxCell id="1" parent="0" />
        <mxCell id="PJnd46_2gBcFN1G9FBrf-1" style="edgeStyle=orthogonalEdgeStyle;rounded=0;orthogonalLoop=1;jettySize=auto;html=1;exitX=1;exitY=0.5;exitDx=0;exitDy=0;entryX=0;entryY=0.5;entryDx=0;entryDy=0;endArrow=blockThin;endFill=1;" edge="1" parent="1" source="PJnd46_2gBcFN1G9FBrf-5" target="PJnd46_2gBcFN1G9FBrf-10">
          <mxGeometry relative="1" as="geometry" />
        </mxCell>
        <mxCell id="PJnd46_2gBcFN1G9FBrf-2" value="&lt;font style=&quot;font-size: 14px;&quot;&gt;n&lt;/font&gt;" style="edgeLabel;html=1;align=center;verticalAlign=middle;resizable=0;points=[];" vertex="1" connectable="0" parent="PJnd46_2gBcFN1G9FBrf-1">
          <mxGeometry x="-0.141" y="-1" relative="1" as="geometry">
            <mxPoint x="7" y="-2" as="offset" />
          </mxGeometry>
        </mxCell>
        <mxCell id="PJnd46_2gBcFN1G9FBrf-3" style="rounded=0;orthogonalLoop=1;jettySize=auto;html=1;exitX=0.5;exitY=1;exitDx=0;exitDy=0;edgeStyle=orthogonalEdgeStyle;endArrow=blockThin;endFill=1;" edge="1" parent="1" source="PJnd46_2gBcFN1G9FBrf-5" target="PJnd46_2gBcFN1G9FBrf-20">
          <mxGeometry relative="1" as="geometry" />
        </mxCell>
        <mxCell id="PJnd46_2gBcFN1G9FBrf-4" value="&lt;font style=&quot;font-size: 14px;&quot;&gt;m&lt;/font&gt;" style="edgeLabel;html=1;align=center;verticalAlign=middle;resizable=0;points=[];" vertex="1" connectable="0" parent="PJnd46_2gBcFN1G9FBrf-3">
          <mxGeometry x="-0.0931" y="-2" relative="1" as="geometry">
            <mxPoint x="2" as="offset" />
          </mxGeometry>
        </mxCell>
        <mxCell id="PJnd46_2gBcFN1G9FBrf-5" value="s0" style="ellipse;whiteSpace=wrap;html=1;aspect=fixed;" vertex="1" parent="1">
          <mxGeometry x="230" y="250" width="50" height="50" as="geometry" />
        </mxCell>
        <mxCell id="PJnd46_2gBcFN1G9FBrf-6" style="edgeStyle=orthogonalEdgeStyle;rounded=0;orthogonalLoop=1;jettySize=auto;html=1;exitX=1;exitY=0;exitDx=0;exitDy=0;entryX=0;entryY=0.5;entryDx=0;entryDy=0;endArrow=blockThin;endFill=1;" edge="1" parent="1" source="PJnd46_2gBcFN1G9FBrf-10" target="PJnd46_2gBcFN1G9FBrf-16">
          <mxGeometry relative="1" as="geometry">
            <Array as="points">
              <mxPoint x="430" y="257" />
              <mxPoint x="430" y="215" />
            </Array>
          </mxGeometry>
        </mxCell>
        <mxCell id="PJnd46_2gBcFN1G9FBrf-7" value="&lt;font style=&quot;font-size: 14px;&quot;&gt;c&lt;/font&gt;" style="edgeLabel;html=1;align=center;verticalAlign=middle;resizable=0;points=[];" vertex="1" connectable="0" parent="PJnd46_2gBcFN1G9FBrf-6">
          <mxGeometry x="0.1567" y="2" relative="1" as="geometry">
            <mxPoint x="-1" y="2" as="offset" />
          </mxGeometry>
        </mxCell>
        <mxCell id="PJnd46_2gBcFN1G9FBrf-8" style="edgeStyle=orthogonalEdgeStyle;rounded=0;orthogonalLoop=1;jettySize=auto;html=1;exitX=0.5;exitY=0;exitDx=0;exitDy=0;entryX=0.5;entryY=1;entryDx=0;entryDy=0;endArrow=blockThin;endFill=1;" edge="1" parent="1" source="PJnd46_2gBcFN1G9FBrf-10" target="PJnd46_2gBcFN1G9FBrf-17">
          <mxGeometry relative="1" as="geometry" />
        </mxCell>
        <mxCell id="PJnd46_2gBcFN1G9FBrf-9" value="&lt;font style=&quot;font-size: 14px;&quot;&gt;d&lt;/font&gt;" style="edgeLabel;html=1;align=center;verticalAlign=middle;resizable=0;points=[];" vertex="1" connectable="0" parent="PJnd46_2gBcFN1G9FBrf-8">
          <mxGeometry x="0.0796" relative="1" as="geometry">
            <mxPoint x="-1" y="2" as="offset" />
          </mxGeometry>
        </mxCell>
        <mxCell id="PJnd46_2gBcFN1G9FBrf-10" value="s1" style="ellipse;shape=doubleEllipse;whiteSpace=wrap;html=1;aspect=fixed;" vertex="1" parent="1">
          <mxGeometry x="390" y="250" width="50" height="50" as="geometry" />
        </mxCell>
        <mxCell id="PJnd46_2gBcFN1G9FBrf-11" style="edgeStyle=orthogonalEdgeStyle;rounded=0;orthogonalLoop=1;jettySize=auto;html=1;exitX=0.5;exitY=1;exitDx=0;exitDy=0;entryX=0.5;entryY=0;entryDx=0;entryDy=0;endArrow=blockThin;endFill=1;" edge="1" parent="1" source="PJnd46_2gBcFN1G9FBrf-13" target="PJnd46_2gBcFN1G9FBrf-24">
          <mxGeometry relative="1" as="geometry" />
        </mxCell>
        <mxCell id="PJnd46_2gBcFN1G9FBrf-12" value="&lt;font style=&quot;font-size: 14px;&quot;&gt;r&lt;/font&gt;" style="edgeLabel;html=1;align=center;verticalAlign=middle;resizable=0;points=[];" vertex="1" connectable="0" parent="PJnd46_2gBcFN1G9FBrf-11">
          <mxGeometry x="-0.155" y="-3" relative="1" as="geometry">
            <mxPoint x="3" as="offset" />
          </mxGeometry>
        </mxCell>
        <mxCell id="PJnd46_2gBcFN1G9FBrf-13" value="s4" style="ellipse;whiteSpace=wrap;html=1;aspect=fixed;" vertex="1" parent="1">
          <mxGeometry x="560" y="258" width="50" height="50" as="geometry" />
        </mxCell>
        <mxCell id="PJnd46_2gBcFN1G9FBrf-14" style="edgeStyle=orthogonalEdgeStyle;rounded=0;orthogonalLoop=1;jettySize=auto;html=1;exitX=0.5;exitY=1;exitDx=0;exitDy=0;entryX=1.02;entryY=0.37;entryDx=0;entryDy=0;entryPerimeter=0;endArrow=blockThin;endFill=1;" edge="1" parent="1" source="PJnd46_2gBcFN1G9FBrf-16" target="PJnd46_2gBcFN1G9FBrf-10">
          <mxGeometry relative="1" as="geometry" />
        </mxCell>
        <mxCell id="PJnd46_2gBcFN1G9FBrf-15" value="&lt;font style=&quot;font-size: 14px;&quot;&gt;a&lt;/font&gt;" style="edgeLabel;html=1;align=center;verticalAlign=middle;resizable=0;points=[];" vertex="1" connectable="0" parent="PJnd46_2gBcFN1G9FBrf-14">
          <mxGeometry x="0.0234" y="-1" relative="1" as="geometry">
            <mxPoint x="3" as="offset" />
          </mxGeometry>
        </mxCell>
        <mxCell id="PJnd46_2gBcFN1G9FBrf-16" value="s3" style="ellipse;whiteSpace=wrap;html=1;aspect=fixed;" vertex="1" parent="1">
          <mxGeometry x="520" y="190" width="50" height="50" as="geometry" />
        </mxCell>
        <mxCell id="PJnd46_2gBcFN1G9FBrf-17" value="s2" style="ellipse;shape=doubleEllipse;whiteSpace=wrap;html=1;aspect=fixed;" vertex="1" parent="1">
          <mxGeometry x="390" y="140" width="50" height="50" as="geometry" />
        </mxCell>
        <mxCell id="PJnd46_2gBcFN1G9FBrf-18" style="edgeStyle=orthogonalEdgeStyle;rounded=0;orthogonalLoop=1;jettySize=auto;html=1;exitX=1;exitY=0.5;exitDx=0;exitDy=0;entryX=0;entryY=0.5;entryDx=0;entryDy=0;endArrow=blockThin;endFill=1;" edge="1" parent="1" source="PJnd46_2gBcFN1G9FBrf-20" target="PJnd46_2gBcFN1G9FBrf-21">
          <mxGeometry relative="1" as="geometry" />
        </mxCell>
        <mxCell id="PJnd46_2gBcFN1G9FBrf-19" value="&lt;font style=&quot;font-size: 14px;&quot;&gt;i&lt;/font&gt;" style="edgeLabel;html=1;align=center;verticalAlign=middle;resizable=0;points=[];" vertex="1" connectable="0" parent="PJnd46_2gBcFN1G9FBrf-18">
          <mxGeometry x="-0.1301" y="1" relative="1" as="geometry">
            <mxPoint as="offset" />
          </mxGeometry>
        </mxCell>
        <mxCell id="PJnd46_2gBcFN1G9FBrf-20" value="s7" style="ellipse;whiteSpace=wrap;html=1;aspect=fixed;" vertex="1" parent="1">
          <mxGeometry x="230" y="370" width="50" height="50" as="geometry" />
        </mxCell>
        <mxCell id="PJnd46_2gBcFN1G9FBrf-21" value="s8" style="ellipse;whiteSpace=wrap;html=1;aspect=fixed;" vertex="1" parent="1">
          <mxGeometry x="340" y="370" width="50" height="50" as="geometry" />
        </mxCell>
        <mxCell id="PJnd46_2gBcFN1G9FBrf-22" style="edgeStyle=orthogonalEdgeStyle;rounded=0;orthogonalLoop=1;jettySize=auto;html=1;endArrow=blockThin;endFill=1;" edge="1" parent="1" source="PJnd46_2gBcFN1G9FBrf-24" target="PJnd46_2gBcFN1G9FBrf-25">
          <mxGeometry relative="1" as="geometry" />
        </mxCell>
        <mxCell id="PJnd46_2gBcFN1G9FBrf-23" value="&lt;font style=&quot;font-size: 14px;&quot;&gt;y&lt;/font&gt;" style="edgeLabel;html=1;align=center;verticalAlign=middle;resizable=0;points=[];" vertex="1" connectable="0" parent="PJnd46_2gBcFN1G9FBrf-22">
          <mxGeometry x="0.0957" relative="1" as="geometry">
            <mxPoint x="6" as="offset" />
          </mxGeometry>
        </mxCell>
        <mxCell id="PJnd46_2gBcFN1G9FBrf-24" value="s5" style="ellipse;whiteSpace=wrap;html=1;aspect=fixed;" vertex="1" parent="1">
          <mxGeometry x="560" y="370" width="50" height="50" as="geometry" />
        </mxCell>
        <mxCell id="PJnd46_2gBcFN1G9FBrf-25" value="s6" style="ellipse;whiteSpace=wrap;html=1;aspect=fixed;" vertex="1" parent="1">
          <mxGeometry x="450" y="370" width="50" height="50" as="geometry" />
        </mxCell>
        <mxCell id="PJnd46_2gBcFN1G9FBrf-26" style="edgeStyle=orthogonalEdgeStyle;rounded=0;orthogonalLoop=1;jettySize=auto;html=1;exitX=0;exitY=0.5;exitDx=0;exitDy=0;entryX=1;entryY=1;entryDx=0;entryDy=0;endArrow=blockThin;endFill=1;" edge="1" parent="1" source="PJnd46_2gBcFN1G9FBrf-25" target="PJnd46_2gBcFN1G9FBrf-10">
          <mxGeometry relative="1" as="geometry">
            <Array as="points">
              <mxPoint x="433" y="395" />
            </Array>
          </mxGeometry>
        </mxCell>
        <mxCell id="PJnd46_2gBcFN1G9FBrf-27" value="&lt;font style=&quot;font-size: 14px;&quot;&gt;a&lt;/font&gt;" style="edgeLabel;html=1;align=center;verticalAlign=middle;resizable=0;points=[];" vertex="1" connectable="0" parent="PJnd46_2gBcFN1G9FBrf-26">
          <mxGeometry x="0.2092" y="3" relative="1" as="geometry">
            <mxPoint x="2" y="8" as="offset" />
          </mxGeometry>
        </mxCell>
        <mxCell id="PJnd46_2gBcFN1G9FBrf-28" style="edgeStyle=orthogonalEdgeStyle;rounded=0;orthogonalLoop=1;jettySize=auto;html=1;exitX=1;exitY=0.5;exitDx=0;exitDy=0;entryX=0.313;entryY=1.01;entryDx=0;entryDy=0;entryPerimeter=0;endArrow=blockThin;endFill=1;" edge="1" parent="1" source="PJnd46_2gBcFN1G9FBrf-21" target="PJnd46_2gBcFN1G9FBrf-10">
          <mxGeometry relative="1" as="geometry">
            <Array as="points">
              <mxPoint x="406" y="395" />
            </Array>
          </mxGeometry>
        </mxCell>
        <mxCell id="PJnd46_2gBcFN1G9FBrf-29" value="&lt;font style=&quot;font-size: 14px;&quot;&gt;l&lt;/font&gt;" style="edgeLabel;html=1;align=center;verticalAlign=middle;resizable=0;points=[];" vertex="1" connectable="0" parent="PJnd46_2gBcFN1G9FBrf-28">
          <mxGeometry x="0.1523" y="1" relative="1" as="geometry">
            <mxPoint as="offset" />
          </mxGeometry>
        </mxCell>
        <mxCell id="PJnd46_2gBcFN1G9FBrf-30" style="edgeStyle=orthogonalEdgeStyle;rounded=0;orthogonalLoop=1;jettySize=auto;html=1;exitX=1.007;exitY=0.663;exitDx=0;exitDy=0;exitPerimeter=0;entryX=0;entryY=0.5;entryDx=0;entryDy=0;endArrow=blockThin;endFill=1;" edge="1" parent="1" source="PJnd46_2gBcFN1G9FBrf-10" target="PJnd46_2gBcFN1G9FBrf-13">
          <mxGeometry relative="1" as="geometry">
            <mxPoint x="574" y="320" as="sourcePoint" />
            <mxPoint x="590" y="283" as="targetPoint" />
          </mxGeometry>
        </mxCell>
        <mxCell id="PJnd46_2gBcFN1G9FBrf-31" value="&lt;font style=&quot;font-size: 14px;&quot;&gt;a&lt;/font&gt;" style="edgeLabel;html=1;align=center;verticalAlign=middle;resizable=0;points=[];" vertex="1" connectable="0" parent="PJnd46_2gBcFN1G9FBrf-30">
          <mxGeometry x="-0.4045" y="-1" relative="1" as="geometry">
            <mxPoint x="20" y="-2" as="offset" />
          </mxGeometry>
        </mxCell>
        <mxCell id="PJnd46_2gBcFN1G9FBrf-32" style="edgeStyle=orthogonalEdgeStyle;rounded=0;orthogonalLoop=1;jettySize=auto;html=1;entryX=0;entryY=0.5;entryDx=0;entryDy=0;endArrow=blockThin;endFill=1;" edge="1" parent="1" target="PJnd46_2gBcFN1G9FBrf-5">
          <mxGeometry relative="1" as="geometry">
            <mxPoint x="160" y="275" as="sourcePoint" />
            <mxPoint x="210" y="274.63" as="targetPoint" />
          </mxGeometry>
        </mxCell>
        <mxCell id="PJnd46_2gBcFN1G9FBrf-33" value="&lt;font style=&quot;font-size: 14px;&quot;&gt;a&lt;/font&gt;" style="edgeLabel;html=1;align=center;verticalAlign=middle;resizable=0;points=[];" vertex="1" connectable="0" parent="PJnd46_2gBcFN1G9FBrf-32">
          <mxGeometry x="-0.1877" relative="1" as="geometry">
            <mxPoint x="1" y="-1" as="offset" />
          </mxGeometry>
        </mxCell>
      </root>
    </mxGraphModel>
  </diagram>
</mxfile>
